<?xml version="1.0" encoding="UTF-8"?>
<svg width="100px" height="100px" viewBox="0 0 100 100" version="1.1" xmlns="http://www.w3.org/2000/svg" xmlns:xlink="http://www.w3.org/1999/xlink">
    <!-- Generator: Sketch 49.3 (51167) - http://www.bohemiancoding.com/sketch -->
    <title>close</title>
    <desc>Created with Sketch.</desc>
    <defs></defs>
    <g id="Page-1" stroke="none" stroke-width="1" fill="none" fill-rule="evenodd">
        <g id="close" transform="translate(-1.000000, 0.000000)" fill="#FFFFFF" fill-rule="nonzero">
            <g id="np_close_1962734_000000">
                <path d="M86.3549697,14.6450303 C105.881677,34.1717374 105.881677,65.8282626 86.3549697,85.3549697 C66.8282626,104.881677 35.1717374,104.881677 15.6450303,85.3549697 C-3.88167677,65.8282626 -3.88167677,34.1717374 15.6450303,14.6450303 C35.1717374,-4.88167677 66.8282626,-4.88167677 86.3549697,14.6450303 Z M72.7501737,67.6092359 L72.7541737,67.6092359 L55.1454378,50.0005 L72.7541737,32.3917641 C73.8947566,31.2511812 73.8947566,29.3879092 72.7541737,28.2473263 C71.6135908,27.1067434 69.7503187,27.1067434 68.6097359,28.2473263 L51.001,45.8560622 L33.3962641,28.2473263 C32.2556812,27.1067434 30.3924091,27.1067434 29.2518262,28.2473263 C28.1112433,29.3879092 28.1112433,31.2511812 29.2518262,32.3917641 L46.8565622,50.0005 L29.2478263,67.6052359 C28.1072434,68.7458188 28.1072434,70.6090909 29.2478263,71.7496738 C30.3884092,72.8902566 32.2516812,72.8902566 33.3922641,71.7496738 L51.001,54.1449378 L68.6057359,71.7536737 C69.7463188,72.8942566 71.6095909,72.8942566 72.7501737,71.7536737 C73.8907566,70.6130908 73.8907566,68.7498188 72.7501737,67.6092359 Z" id="Shape"></path>
            </g>
        </g>
    </g>
</svg>